<mxfile host="app.diagrams.net" agent="Mozilla/5.0 (Windows NT 10.0; Win64; x64; rv:140.0) Gecko/20100101 Firefox/140.0" version="28.2.7">
  <diagram name="Page-1" id="bkj-uRayxpSHYkBYoGqN">
    <mxGraphModel dx="914" dy="536" grid="1" gridSize="10" guides="1" tooltips="1" connect="1" arrows="1" fold="1" page="1" pageScale="1" pageWidth="850" pageHeight="1100" math="0" shadow="0">
      <root>
        <mxCell id="0" />
        <mxCell id="1" parent="0" />
        <mxCell id="Dr5I9PUTcqa0ojB0ULPx-2" value="&lt;a href=&quot;https://keda.sh/docs/2.18/concepts/&quot;&gt;KEDA Concepts | KEDA&lt;/a&gt;" style="text;html=1;whiteSpace=wrap;strokeColor=none;fillColor=none;align=left;verticalAlign=middle;rounded=0;fontSize=14;" vertex="1" parent="1">
          <mxGeometry x="80" y="50" width="440" height="30" as="geometry" />
        </mxCell>
        <mxCell id="Dr5I9PUTcqa0ojB0ULPx-3" value="" style="ellipse;whiteSpace=wrap;html=1;aspect=fixed;fillColor=none;" vertex="1" parent="1">
          <mxGeometry x="160" y="160" width="560" height="560" as="geometry" />
        </mxCell>
        <mxCell id="Dr5I9PUTcqa0ojB0ULPx-4" value="&lt;b&gt;Kubernetes Cluster&lt;/b&gt;" style="text;html=1;whiteSpace=wrap;strokeColor=none;fillColor=none;align=center;verticalAlign=middle;rounded=0;fontSize=16;" vertex="1" parent="1">
          <mxGeometry x="325" y="130" width="200" height="30" as="geometry" />
        </mxCell>
        <mxCell id="Dr5I9PUTcqa0ojB0ULPx-6" value="&lt;font style=&quot;font-size: 14px;&quot;&gt;&lt;b&gt;&lt;font&gt;Kubernetes&amp;nbsp;&lt;br&gt;API Server&lt;/font&gt;&lt;/b&gt;&lt;/font&gt;" style="shape=cylinder3;whiteSpace=wrap;html=1;boundedLbl=1;backgroundOutline=1;size=15;" vertex="1" parent="1">
          <mxGeometry x="400" y="220" width="165" height="80" as="geometry" />
        </mxCell>
        <mxCell id="Dr5I9PUTcqa0ojB0ULPx-7" value="&lt;font style=&quot;font-size: 14px;&quot;&gt;&lt;b&gt;ScaledObject&lt;/b&gt;&lt;/font&gt;" style="ellipse;whiteSpace=wrap;html=1;aspect=fixed;fillColor=#dae8fc;strokeColor=#6c8ebf;" vertex="1" parent="1">
          <mxGeometry x="180" y="200" width="120" height="120" as="geometry" />
        </mxCell>
        <mxCell id="Dr5I9PUTcqa0ojB0ULPx-9" value="" style="rounded=1;whiteSpace=wrap;html=1;" vertex="1" parent="1">
          <mxGeometry x="360" y="370" width="530" height="120" as="geometry" />
        </mxCell>
        <mxCell id="Dr5I9PUTcqa0ojB0ULPx-10" value="&lt;font style=&quot;font-size: 14px;&quot;&gt;&lt;b&gt;Horizontal&lt;br&gt;pod&lt;br&gt;autoscaler&lt;/b&gt;&lt;/font&gt;" style="rounded=1;whiteSpace=wrap;html=1;" vertex="1" parent="1">
          <mxGeometry x="170" y="385" width="150" height="90" as="geometry" />
        </mxCell>
        <mxCell id="Dr5I9PUTcqa0ojB0ULPx-11" value="&lt;b&gt;&lt;font style=&quot;font-size: 14px;&quot;&gt;Metrics adapter&lt;/font&gt;&lt;/b&gt;" style="rounded=1;whiteSpace=wrap;html=1;" vertex="1" parent="1">
          <mxGeometry x="370" y="395" width="120" height="70" as="geometry" />
        </mxCell>
        <mxCell id="Dr5I9PUTcqa0ojB0ULPx-12" value="&lt;font style=&quot;font-size: 14px;&quot;&gt;&lt;b&gt;Controller&lt;/b&gt;&lt;/font&gt;" style="rounded=1;whiteSpace=wrap;html=1;" vertex="1" parent="1">
          <mxGeometry x="500" y="395" width="120" height="70" as="geometry" />
        </mxCell>
        <mxCell id="Dr5I9PUTcqa0ojB0ULPx-13" value="&lt;font style=&quot;font-size: 14px;&quot;&gt;&lt;b&gt;Scaler&lt;/b&gt;&lt;/font&gt;" style="rounded=1;whiteSpace=wrap;html=1;" vertex="1" parent="1">
          <mxGeometry x="630" y="395" width="120" height="70" as="geometry" />
        </mxCell>
        <mxCell id="Dr5I9PUTcqa0ojB0ULPx-14" value="&lt;b&gt;&lt;font style=&quot;font-size: 14px;&quot;&gt;Admission&amp;nbsp;&lt;br&gt;Webhooks&lt;/font&gt;&lt;/b&gt;" style="rounded=1;whiteSpace=wrap;html=1;" vertex="1" parent="1">
          <mxGeometry x="760" y="395" width="120" height="70" as="geometry" />
        </mxCell>
        <mxCell id="Dr5I9PUTcqa0ojB0ULPx-15" value="" style="whiteSpace=wrap;html=1;aspect=fixed;" vertex="1" parent="1">
          <mxGeometry x="360" y="560" width="80" height="80" as="geometry" />
        </mxCell>
        <mxCell id="Dr5I9PUTcqa0ojB0ULPx-16" value="" style="whiteSpace=wrap;html=1;aspect=fixed;" vertex="1" parent="1">
          <mxGeometry x="370" y="570" width="80" height="80" as="geometry" />
        </mxCell>
        <mxCell id="Dr5I9PUTcqa0ojB0ULPx-17" value="&lt;font style=&quot;font-size: 16px;&quot;&gt;&amp;lt; / &amp;gt;&lt;/font&gt;" style="whiteSpace=wrap;html=1;aspect=fixed;" vertex="1" parent="1">
          <mxGeometry x="380" y="580" width="80" height="80" as="geometry" />
        </mxCell>
        <mxCell id="Dr5I9PUTcqa0ojB0ULPx-18" value="&lt;div align=&quot;center&quot;&gt;&lt;b&gt;&lt;font style=&quot;font-size: 14px;&quot;&gt;External&amp;nbsp;&lt;/font&gt;&lt;/b&gt;&lt;/div&gt;&lt;div align=&quot;center&quot;&gt;&lt;b&gt;&lt;font style=&quot;font-size: 14px;&quot;&gt;trigger&amp;nbsp;&lt;/font&gt;&lt;/b&gt;&lt;/div&gt;&lt;div align=&quot;center&quot;&gt;&lt;b&gt;&lt;font style=&quot;font-size: 14px;&quot;&gt;source&lt;/font&gt;&lt;/b&gt;&lt;/div&gt;" style="ellipse;whiteSpace=wrap;html=1;aspect=fixed;fillColor=#dae8fc;strokeColor=#6c8ebf;align=center;" vertex="1" parent="1">
          <mxGeometry x="580" y="550" width="120" height="120" as="geometry" />
        </mxCell>
        <mxCell id="Dr5I9PUTcqa0ojB0ULPx-19" value="&lt;font style=&quot;font-size: 14px;&quot;&gt;&lt;b&gt;Workload&lt;/b&gt;&lt;/font&gt;" style="text;html=1;whiteSpace=wrap;strokeColor=none;fillColor=none;align=center;verticalAlign=middle;rounded=0;" vertex="1" parent="1">
          <mxGeometry x="370" y="660" width="100" height="30" as="geometry" />
        </mxCell>
        <mxCell id="Dr5I9PUTcqa0ojB0ULPx-20" value="" style="endArrow=classic;html=1;rounded=0;entryX=0;entryY=0.5;entryDx=0;entryDy=0;entryPerimeter=0;strokeWidth=2;fillColor=#dae8fc;strokeColor=#6c8ebf;" edge="1" parent="1" target="Dr5I9PUTcqa0ojB0ULPx-6">
          <mxGeometry width="50" height="50" relative="1" as="geometry">
            <mxPoint x="300" y="260" as="sourcePoint" />
            <mxPoint x="350" y="210" as="targetPoint" />
          </mxGeometry>
        </mxCell>
        <mxCell id="Dr5I9PUTcqa0ojB0ULPx-21" value="KEDA" style="text;html=1;whiteSpace=wrap;strokeColor=none;fillColor=none;align=center;verticalAlign=middle;rounded=0;fontSize=18;" vertex="1" parent="1">
          <mxGeometry x="560" y="320" width="60" height="30" as="geometry" />
        </mxCell>
        <mxCell id="Dr5I9PUTcqa0ojB0ULPx-22" value="" style="endArrow=classic;html=1;rounded=0;exitX=0.5;exitY=1;exitDx=0;exitDy=0;exitPerimeter=0;strokeWidth=2;fillColor=#dae8fc;strokeColor=#6c8ebf;" edge="1" parent="1">
          <mxGeometry width="50" height="50" relative="1" as="geometry">
            <mxPoint x="479.5" y="300" as="sourcePoint" />
            <mxPoint x="480" y="370" as="targetPoint" />
          </mxGeometry>
        </mxCell>
        <mxCell id="Dr5I9PUTcqa0ojB0ULPx-23" value="&lt;font&gt;Register +&amp;nbsp;&lt;br&gt;trigger and&amp;nbsp;&lt;br&gt;scaling definition&lt;/font&gt;" style="text;html=1;whiteSpace=wrap;strokeColor=#82b366;fillColor=#d5e8d4;align=left;verticalAlign=middle;rounded=0;fontSize=14;" vertex="1" parent="1">
          <mxGeometry x="300" y="300" width="120" height="60" as="geometry" />
        </mxCell>
        <mxCell id="Dr5I9PUTcqa0ojB0ULPx-24" value="" style="endArrow=classic;html=1;rounded=0;entryX=1;entryY=0.5;entryDx=0;entryDy=0;strokeWidth=2;fillColor=#dae8fc;strokeColor=#6c8ebf;" edge="1" parent="1" target="Dr5I9PUTcqa0ojB0ULPx-10">
          <mxGeometry width="50" height="50" relative="1" as="geometry">
            <mxPoint x="360" y="430" as="sourcePoint" />
            <mxPoint x="410" y="380" as="targetPoint" />
          </mxGeometry>
        </mxCell>
        <mxCell id="Dr5I9PUTcqa0ojB0ULPx-25" value="" style="endArrow=classic;startArrow=classic;html=1;rounded=0;entryX=0.529;entryY=1.014;entryDx=0;entryDy=0;entryPerimeter=0;strokeWidth=2;fillColor=#dae8fc;strokeColor=#6c8ebf;" edge="1" parent="1" target="Dr5I9PUTcqa0ojB0ULPx-9">
          <mxGeometry width="50" height="50" relative="1" as="geometry">
            <mxPoint x="640" y="550" as="sourcePoint" />
            <mxPoint x="690" y="500" as="targetPoint" />
          </mxGeometry>
        </mxCell>
        <mxCell id="Dr5I9PUTcqa0ojB0ULPx-26" value="&lt;div align=&quot;center&quot;&gt;&lt;b&gt;&lt;font style=&quot;font-size: 14px;&quot;&gt;Any&amp;nbsp;&lt;/font&gt;&lt;/b&gt;&lt;/div&gt;&lt;div align=&quot;center&quot;&gt;&lt;b&gt;&lt;font style=&quot;font-size: 14px;&quot;&gt;events ?&lt;/font&gt;&lt;/b&gt;&lt;/div&gt;" style="text;html=1;whiteSpace=wrap;strokeColor=none;fillColor=none;align=center;verticalAlign=middle;rounded=0;" vertex="1" parent="1">
          <mxGeometry x="560" y="500" width="60" height="50" as="geometry" />
        </mxCell>
        <mxCell id="Dr5I9PUTcqa0ojB0ULPx-27" value="" style="endArrow=classic;startArrow=classic;html=1;rounded=0;strokeWidth=2;fillColor=#dae8fc;strokeColor=#6c8ebf;" edge="1" parent="1">
          <mxGeometry width="50" height="50" relative="1" as="geometry">
            <mxPoint x="460" y="610.26" as="sourcePoint" />
            <mxPoint x="580" y="610" as="targetPoint" />
          </mxGeometry>
        </mxCell>
        <mxCell id="Dr5I9PUTcqa0ojB0ULPx-29" value="" style="endArrow=none;html=1;rounded=0;exitX=0.5;exitY=1;exitDx=0;exitDy=0;entryX=0.429;entryY=0.643;entryDx=0;entryDy=0;entryPerimeter=0;strokeWidth=2;" edge="1" parent="1" source="Dr5I9PUTcqa0ojB0ULPx-10" target="Dr5I9PUTcqa0ojB0ULPx-3">
          <mxGeometry width="50" height="50" relative="1" as="geometry">
            <mxPoint x="275" y="550" as="sourcePoint" />
            <mxPoint x="325" y="500" as="targetPoint" />
            <Array as="points">
              <mxPoint x="245" y="520" />
            </Array>
          </mxGeometry>
        </mxCell>
        <mxCell id="Dr5I9PUTcqa0ojB0ULPx-30" value="" style="endArrow=none;html=1;rounded=0;strokeWidth=2;" edge="1" parent="1">
          <mxGeometry width="50" height="50" relative="1" as="geometry">
            <mxPoint x="400" y="520" as="sourcePoint" />
            <mxPoint x="520" y="490" as="targetPoint" />
            <Array as="points">
              <mxPoint x="520" y="520" />
            </Array>
          </mxGeometry>
        </mxCell>
        <mxCell id="Dr5I9PUTcqa0ojB0ULPx-31" value="" style="endArrow=classic;html=1;rounded=0;entryX=0.5;entryY=0;entryDx=0;entryDy=0;strokeWidth=2;" edge="1" parent="1" target="Dr5I9PUTcqa0ojB0ULPx-15">
          <mxGeometry width="50" height="50" relative="1" as="geometry">
            <mxPoint x="400" y="520" as="sourcePoint" />
            <mxPoint x="450" y="470" as="targetPoint" />
          </mxGeometry>
        </mxCell>
        <mxCell id="Dr5I9PUTcqa0ojB0ULPx-32" value="&lt;font style=&quot;font-size: 14px;&quot;&gt;&lt;b&gt;1 -&amp;gt; n or n -&amp;gt; 1&lt;/b&gt;&lt;/font&gt;" style="text;html=1;whiteSpace=wrap;strokeColor=none;fillColor=none;align=center;verticalAlign=middle;rounded=0;" vertex="1" parent="1">
          <mxGeometry x="280" y="520" width="110" height="30" as="geometry" />
        </mxCell>
        <mxCell id="Dr5I9PUTcqa0ojB0ULPx-33" value="&lt;font style=&quot;font-size: 14px;&quot;&gt;&lt;b&gt;0 -&amp;gt; 1 or 1 -&amp;gt; 0&lt;/b&gt;&lt;/font&gt;" style="text;html=1;whiteSpace=wrap;strokeColor=none;fillColor=none;align=center;verticalAlign=middle;rounded=0;" vertex="1" parent="1">
          <mxGeometry x="410" y="520" width="110" height="30" as="geometry" />
        </mxCell>
        <mxCell id="Dr5I9PUTcqa0ojB0ULPx-35" value="1. Scaler&#xa;A Scaler knows how to connect to an external system (like an Azure Service Bus, RabbitMQ, Kafka, or an HTTP endpoint).&#xa;It queries that system to find out how much &quot;work&quot; there is — e.g., how many messages are in a queue.&#xa;Each Scaler type knows how to translate that load into a metric (like “number of messages per consumer”).&#xa;&#xa;2. Custom Resource Definitions (CRDs&#xa;You create a ScaledObject or ScaledJob CRD that tells KEDA:&#xa;    Which app to scale (Deployment, StatefulSet, Job)&#xa;    Which Scaler to use (e.g., RabbitMQ, Prometheus, HTTP)&#xa;    The scaling rules (e.g., “scale up if &gt; 100 messages per pod”)&#xa;This CRD is how you configure scaling behavior declaratively in Kubernetes.&#xa;&#xa;3. Metrics Server&#xa;The Metrics Server exposes the metrics collected by Scalers (like queue length) as external metrics that Kubernetes can understand.&#xa;Kubernetes’ Horizontal Pod Autoscaler (HPA) reads those metrics to decide how many replicas your app should have.&#xa;&#xa;4. Operator&#xa;The KEDA Operator watches your CRDs (ScaledObjects).&#xa;It manages:&#xa;    Creation and updates of HPAs based on your scaling rules.&#xa;    Activation and deactivation logic (for example, scaling to zero when no work exists).&#xa;The Operator is the “brains” that ties everything together.&#xa;&#xa;&#xa;&#xa;Step 1: Your App&#xa;    - You deploy your message processor as a Kubernetes Deployment:&#xa;Step 2: Define a ScaledObject (CRD)&#xa;    - You tell KEDA how to scale it:&#xa;Step 3: KEDA Operator Watches This&#xa;    - The KEDA Operator sees your ScaledObject and creates an HPA behind the scenes.&#xa;    - It connects that HPA to metrics from the Metrics Server.&#xa;Step 4: Scaler Checks the Queue&#xa;    - The Service Bus Scaler periodically checks the queue length.&#xa;    - If the queue length is 0 → KEDA tells Kubernetes to scale to 0 pods.&#xa;    - If the queue length rises above 100 per existing pod → HPA decides to scale up (maybe 3 or 4 pods).&#xa;Step 5: Metrics Server and HPA Interaction&#xa;    - The Scaler sends the “queue length” metric to the Metrics Server.&#xa;    - The HPA uses this metric (instead of CPU) to determine the desired replica count.&#xa;Step 6: Scaling Happens&#xa;    Kubernetes scales your Deployment up or down:&#xa;    - New pods start consuming messages when load increases.&#xa;    - When the queue is empty, pods are gradually scaled down — possibly to zero." style="text;whiteSpace=wrap;" vertex="1" parent="1">
          <mxGeometry x="40" y="760" width="560" height="760" as="geometry" />
        </mxCell>
        <mxCell id="Dr5I9PUTcqa0ojB0ULPx-36" value="External Queue (Service Bus) &#xa;    &#xa;    [Scaler]         -&gt; Reports metrics (e.g., queue length)&#xa;    &#xa;    [Metrics Server] -&gt; Feeds metrics to HPA &#xa;    &#xa;    [KEDA operator]  -&gt; Manages HPA + Scale logic &#xa;    &#xa;    [Kubernetes HPA] -&gt; Scales app pods &#xa;    &#xa;    [Your Deployment App]" style="text;whiteSpace=wrap;fontSize=14;" vertex="1" parent="1">
          <mxGeometry x="680" y="760" width="360" height="200" as="geometry" />
        </mxCell>
      </root>
    </mxGraphModel>
  </diagram>
</mxfile>
